<svg id="Layer_1" xmlns="http://www.w3.org/2000/svg" width="1150" height="34"><path fill="#FFF" d="M1121.25 0c-14.37 0-14.37 14-28.75 14s-14.37-14-28.75-14-14.37 14-28.74 14c-14.38 0-14.38-14-28.75-14-14.38 0-14.38 14-28.75 14S963.13 0 948.76 0s-14.37 14-28.75 14-14.37-14-28.75-14-14.37 14-28.75 14-14.37-14-28.75-14c-14.37 0-14.37 14-28.74 14S790.65 0 776.27 0c-14.37 0-14.37 14-28.74 14-14.38 0-14.38-14-28.75-14s-14.37 14-28.75 14c-14.37 0-14.37-14-28.74-14-14.38 0-14.38 14-28.75 14-14.38 0-14.38-14-28.75-14-14.38 0-14.38 14-28.75 14S560.67 0 546.29 0s-14.37 14-28.75 14c-14.37 0-14.37-14-28.74-14-14.38 0-14.38 14-28.75 14-14.38 0-14.38-14-28.76-14-14.37 0-14.37 14-28.75 14-14.37 0-14.37-14-28.75-14-14.37 0-14.37 14-28.75 14S330.67 0 316.3 0s-14.37 14-28.75 14-14.38-14-28.75-14c-14.38 0-14.38 14-28.75 14S215.67 0 201.29 0c-14.37 0-14.37 14-28.75 14S158.16 0 143.79 0c-14.38 0-14.38 14-28.76 14S100.65 0 86.27 0 71.9 14 57.52 14 43.14 0 28.76 0 14.38 14 0 14v20h1150V14c-14.37 0-14.37-14-28.75-14z"/></svg>