<svg id="Layer_1" xmlns="http://www.w3.org/2000/svg" width="34.4" height="34.4" fill="#63d1bb"><path d="M.3 14c-.4 2.1-.4 4.3 0 6.4l4.1-3.2L.3 14zM24.4 1.6A17.2 17.2 0 0 0 9.1 2l7.6 5.6 7.7-6zM33.9 13.2l-4.8 3.7 5 3.7c.4-2.4.4-5-.2-7.4zM9.2 32.4a17.2 17.2 0 0 0 15.7.1l-8-6-7.7 6zM8 14.4L1.6 9.8l-.8 2 5.3 4 1.7-1.4zM18.6 25.1l8.3 6.2a17.2 17.2 0 0 0 1.8-1.3l-8.4-6.3-1.7 1.4zM11.4 11.7L4 6.2a17 17 0 0 0-1.3 1.7l7 5.2 1.7-1.4zM22 22.4l8.2 6c.5-.5.9-1 1.3-1.7L23.8 21l-1.7 1.4zM15 9L7.1 3.2a17.7 17.7 0 0 0-1.7 1.4l7.7 5.7L14.9 9zM25.6 19.6l7 5.3.8-2-6-4.6-1.8 1.3zM26.4 2.7L1 22.7l.8 2L28.2 4a17 17 0 0 0-1.8-1.3zM30.7 6.6l-.9-1-27 21A17.1 17.1 0 0 0 4 28.3L31 7.2c0-.2-.2-.4-.4-.6zM32.3 9L5.6 29.8c.5.5 1 1 1.7 1.4l26-20.2-1-2z"/></svg>