<svg id="Layer_1" xmlns="http://www.w3.org/2000/svg" width="32.7" height="32.5" viewBox="239.7 239.8 32.7 32.5"><path fill="#63d1bb" d="M242.6 272.2H255v-13.9h-12.5v14zm28.1-23.6h-7.3l1.4-.8c1.6-1.2 2.4-2.6 2.4-4 0-1.2-.5-2.2-1.3-3a4.6 4.6 0 0 0-3-1 6 6 0 0 0-3.4 1c-1.4 1-2.6 2.5-3.4 4l-.1.3a13 13 0 0 0-1-1.8c-.7-1-1.6-1.8-2.5-2.5a6 6 0 0 0-3.4-1 4.7 4.7 0 0 0-4.5 4.4c0 .7.2 1.5.6 2.2.6.8 1.4 1.6 2.6 2.2h-6.5c-1 0-1.6.7-1.6 1.6v6H255v-7.6h1.8v7.5h15.4v-5.9c0-.9-.7-1.6-1.6-1.6m-22.3-2.3c-.6-.4-1-.8-1.2-1.2-.3-.3-.3-.6-.3-1s.2-1 .7-1.4c.4-.4 1-.6 1.5-.6.7 0 1.4.2 2 .6 1 .7 2 1.9 2.7 3.2.4.7.6 1.4.8 2.1-3-.3-5-1-6.2-1.7m10.5-1.6c.6-.8 1.2-1.5 1.9-2 .7-.4 1.4-.6 2-.6.6 0 1.2.2 1.6.5.3.3.5.7.5 1.2s-.2 1.2-1.4 2.1c-1.2.8-3.1 1.7-6.2 2.3.3-1.2.9-2.5 1.6-3.5m-2 27.5h12.5v-13.9H257v14z"/></svg>