<svg id="Layer_1" xmlns="http://www.w3.org/2000/svg" width="66" height="100.8"><path fill="#FFF" d="M56.3 9.2a34.1 34.1 0 0 0-46.6 0 30.5 30.5 0 0 0 0 44.6S33 75.6 33 100.8c0-25.2 23.3-47 23.3-47a30.5 30.5 0 0 0 0-44.6z"/><path fill="#6BC6B3" d="M47 45.5c-.6-3.3.2-7 0-10.3 0-3.7-.6-7.4-.6-11.2 0-3 .5-6.2-.5-9.1l.2-1c.3-1.5-4.6-.7-5.3.7-.5.3-.8.8-.6 1.3l.2.4c-1 4.4-2.2 8.8-3.7 13.1l-1.8 5c-.8-1.6-1.7-3-2.3-4.7-2-4.9-3.7-9.7-6-14.3.3-2.2-4.5-2-5.4 0-1.2 2.4-1 4.8-.6 7.3.4 2.9.4 5.7.5 8.6 0 5.5.5 11 .6 16.6-.5.6-.7 1.3-.2 2l.8.7c1.3 1 5 .2 5-1.7 0-5.8-.5-11.6-.7-17.3v-1.7l.2.6c1 2.2 1.9 4.4 3.1 6.5 1.2 2 1.8 4.3 2.5 6.5-.2.3-.4.7-.3 1 0 .3.1.4.4.5.8.8 2.5.4 3.5 0 .4-.1.8-.3 1.1-.6.5-.3 1.3-1 1-1.6v-.4c.6-1.8 1-3.6 1.3-5.5.4-2 1-3.9 1.8-5.8l.2 2.6c.3 3.6 0 7.1 0 10.7 0 1.2 0 2.3.3 3.4.1.5.5 2.6.4 2.7-.8.8-.6 1.7.6 2 1.2.3 2.9-.1 3.8-1 1.7-1.6 1-4 .5-6z"/></svg>