<svg id="Layer_1" xmlns="http://www.w3.org/2000/svg" width="60" height="59.6" viewBox="226 226.2 60 59.6"><path d="M226 269.9l27.4 16v-23.4l-27.4-16V270zm51.3-31.3v2.5c0 1.8-3.4 3.3-7.7 3.3-4.2 0-7.7-1.5-7.7-3.3v-4c.3 1.6 3.6 3 7.7 3 4.3 0 7.7-1.5 7.7-3.3 0-1.8-3.4-3.3-7.7-3.3h-1l-5-2.8v3c0 1.9-3.4 3.3-7.7 3.3-2.7 0-5-.5-6.4-1.4a4 4 0 0 0-.7-.6c-.4-.4-.6-.8-.6-1.3v-3l-4.8 2.9h-1c-4.3 0-7.8 1.4-7.8 3.2 0 1.8 3.5 3.3 7.7 3.3 4.1 0 7.5-1.4 7.7-3v4c0 1.8-3.4 3.3-7.7 3.3-4.2 0-7.7-1.5-7.7-3.3v-2.4l-6 3.4 27.6 16 27.3-15.9-6.2-3.6zm-13.6 10.2c0 1.8-3.5 3.3-7.7 3.3-4.3 0-7.8-1.5-7.8-3.3v-4c.3 1.6 3.7 3 7.8 3 4 0 7.4-1.4 7.7-3v4zm-5.1 13.9v23.1l27.4-16v-23l-27.4 15.9zm-2.7-30c4.3 0 7.7-1.4 7.7-3.2 0-1.8-3.4-3.3-7.7-3.3-4.3 0-7.7 1.5-7.7 3.3 0 1.8 3.4 3.3 7.7 3.3"/></svg>