<svg id="svg4488" xmlns="http://www.w3.org/2000/svg" width="40.2" height="62.4" viewBox="-259.4 -19.7 40.2 62.4"><path d="M-244.2 18.3a8 8 0 0 0 0 3.6c.5 2.7 1.7 6 2.4 9.7h5c.7-3.6 2-7 2.5-9.7.3-1.4.3-2.7 0-3.6-.2-1-.9-1.6-2-2.3h-6c-1 .7-1.7 1.4-2 2.3zM-232.4 38.3h-13.8c-1.3 0-2.3 1-2.3 2.2v2.2H-230v-2.2c0-1.2-1-2.2-2.3-2.2zM-225.3-17.4H-237c0-1.3-1-2.3-2.3-2.3-1.3 0-2.3 1-2.3 2.3h-11.7L-259.4 8c.8-.5 1.6-1 2.6-1 1.4 0 2.3.8 3 1.4.6.5 1.1.8 1.4.8.3 0 .8-.3 1.5-.8.6-.6 1.5-1.4 2.9-1.4 1.3 0 2.2.8 2.9 1.4.7.5 1.1.8 1.4.8.2 0 .4 0 .6-.2l.9-.6c.5-.4 1.1-1 2-1.3h1c1.3 0 2.1.7 2.8 1.3.7.5 1.2.8 1.5.8.3 0 .7-.3 1.4-.8.7-.6 1.6-1.4 3-1.4 1.3 0 2.2.8 2.9 1.4l.8.6.6.2c.3 0 .8-.3 1.5-.9.6-.5 1.5-1.3 2.9-1.3 1 0 1.8.5 2.6 1l-6-25.5zM-235.9 33.8h-6.8c-.7 0-1.2.5-1.2 1.1 0 .7.5 1.1 1.2 1.1h6.9c.6 0 1.1-.4 1.1-1 0-.7-.5-1.2-1.1-1.2zM-239.3 9.3l-.6.2-.5.5v3.7h2.3V10c-.6-.4-1-.7-1.2-.7z"/></svg>