<svg id="Laag_1" xmlns="http://www.w3.org/2000/svg" width="100.7" height="76.9" viewBox="247.3 382.6 100.7 76.9"><path fill="#63D1BB" d="M344.3 400.7s-1-7-3.8-10c-3.7-4.1-7.7-4.1-9.6-4.4-13.3-1-33.3-1-33.3-1s-20 0-33.3 1c-1.9.3-6 .3-9.6 4.3-2.8 3.1-3.8 10.1-3.8 10.1s-.9 8.2-.9 16.4v7.7c0 8.2 1 16.5 1 16.5s1 7 3.8 10c3.6 4 8.3 4 10.5 4.4 7.6.7 32.3 1 32.3 1s20 0 33.4-1c1.8-.3 5.9-.3 9.5-4.3 2.8-3.1 3.8-10.1 3.8-10.1s1-8.2 1-16.4v-7.7c-.1-8.3-1-16.5-1-16.5z"/><path fill="#FFF" d="M297.6 459.4c-1 0-25-.2-32.6-1H264.7l-1.1-.2c-2.5-.3-7.2-1-10.8-5a24.6 24.6 0 0 1-4.5-11.6c0-.4-1-8.5-1-16.8v-7.7c0-8.2.9-16.3 1-16.7 0-.9 1-8 4.4-11.6 4-4.5 8.5-5 10.7-5.1l.5-.1h.2c13.2-1 33.3-1 33.5-1 .2 0 20.3 0 33.5 1h.7c2.2.3 6.7.7 10.7 5.2a24.6 24.6 0 0 1 4.5 11.5c0 .4 1 8.6 1 16.8v7.8c0 8.2-1 16.3-1 16.7-.1.8-1.2 8-4.5 11.6-4 4.4-8.5 4.9-10.7 5.1h-.6c-13.3 1.1-33.4 1.1-33.6 1.1zm-32-6.4a559 559 0 0 0 65.6-.1 10 10 0 0 0 7.3-3.4c1.8-2 2.8-7 3-8.6.1-.5 1-8.3 1-16v-7.7c0-7.8-1-15.7-1-16.2-.3-2.3-1.4-6.7-3-8.5-2.7-2.9-5.4-3.2-7.3-3.4h-.5c-13.1-1-32.9-1-33-1h-.1a551.4 551.4 0 0 0-33.6 1c-1.9.2-4.6.5-7.2 3.4a20 20 0 0 0-3.1 8.5c0 .6-.9 8.4-.9 16.1v7.7c0 7.8.9 15.6 1 16.1.2 2.4 1.4 6.8 3 8.6 2.4 2.6 5.3 3 7.5 3.3.5 0 1 0 1.4.2z"/><g><path fill="#FFF" d="M285.7 403.1v35.7l29.8-17.8z"/></g></svg>